<svg xmlns="http://www.w3.org/2000/svg" xmlns:xlink="http://www.w3.org/1999/xlink" viewBox="0 0 130 30"><defs><style>.cls-1,.cls-3{fill:#474747;}.cls-2{fill:url(#linear-gradient);}.cls-3{fill-rule:evenodd;}</style><linearGradient id="linear-gradient" x1="-0.05" y1="7.12" x2="127.38" y2="22.55" gradientUnits="userSpaceOnUse"><stop offset="0" stop-color="#fff"/><stop offset="0.2" stop-color="#f3f0ee"/><stop offset="0.37" stop-color="#e6e1dc"/><stop offset="0.69" stop-color="#c8c3be"/><stop offset="1" stop-color="#a8a29d"/></linearGradient></defs><g id="Layer_2" data-name="Layer 2"><g id="Layer_1-2" data-name="Layer 1"><rect class="cls-1" width="130" height="30" rx="1.5"/><rect class="cls-2" width="130" height="30" rx="1.5"/><polygon class="cls-3" points="35.54 14.33 27.2 14.33 27.2 9.84 24.43 9.84 24.43 20.2 27.2 20.2 27.2 16.38 35.54 16.38 35.54 20.2 38.33 20.2 38.33 9.84 35.54 9.84 35.54 14.33"/><rect class="cls-1" x="43.04" y="9.84" width="2.79" height="10.37"/><polygon class="cls-3" points="53.19 9.84 50.41 9.84 50.41 20.2 53.19 20.2 60.84 20.2 60.84 18.34 53.19 18.34 53.19 9.84"/><path class="cls-3" d="M65.76,9.82c-2.32.73-4.39,2.41-4.86,4.61a4.64,4.64,0,0,0,1.33,4.28c3.32,2.77,8.93,2.31,12.67.7l-.21-2.23a8.92,8.92,0,0,1-3.36,1.53c-2.26.34-5,.57-6.67-1.34a3.82,3.82,0,0,1-.17-3.94c1.67-2.61,5.43-2.4,8.11-1.87l2.34.71.09-1.8A15.29,15.29,0,0,0,65.76,9.82Z"/><path class="cls-3" d="M20.93,10.13a9.37,9.37,0,0,0-1.33-.31H8.91V20.2h2.81V16.91h6.57c2.28-.13,3.25-.69,4-1.81a3.7,3.7,0,0,0,.42-2.85A2.81,2.81,0,0,0,20.93,10.13ZM19,14.47a1.44,1.44,0,0,1-.43.3,1.18,1.18,0,0,1-.33.08H11.72v-3.1h6.36a1.65,1.65,0,0,1,1.35,1.17A2,2,0,0,1,19,14.47Z"/><path class="cls-3" d="M84.85,9.21c-4.65,0-8.39,2.56-8.39,5.75s3.74,5.75,8.39,5.75,8.38-2.58,8.38-5.75S89.47,9.21,84.85,9.21Zm.08,9.92c-2.76,0-5-1.86-5-4.17s2.26-4.2,5-4.2,5,1.89,5,4.2S87.7,19.13,84.93,19.13Z"/><path class="cls-3" d="M97.83,8.35v14.1h22.56V8.35Zm17.09,6.8a7.81,7.81,0,0,0-1.12-3.7,6.14,6.14,0,0,0,2.07-1c2.24,1.13,3.67,2.83,3.78,4.72Zm4.73.46c-.11,1.89-1.54,3.59-3.76,4.72a6.34,6.34,0,0,0-2.07-1,7.57,7.57,0,0,0,1.1-3.69ZM113.52,11a5.86,5.86,0,0,0-2.45-2,14.87,14.87,0,0,1,4.31,1.15A6,6,0,0,1,113.52,11Zm-4.16-1.88a4.87,4.87,0,0,1,3.68,2,16.83,16.83,0,0,1-3.68.42Zm0,2.93a16.56,16.56,0,0,0,4-.5,6.9,6.9,0,0,1,1.1,3.57h-5.07Zm0,3.53h5.07a6.73,6.73,0,0,1-1.08,3.57,15.32,15.32,0,0,0-4-.51Zm-10.77-.46c.11-1.89,1.55-3.57,3.74-4.7a6.33,6.33,0,0,0,2.18,1,7.28,7.28,0,0,0-1.19,3.7Zm5.9,4.13a6.39,6.39,0,0,0-2.16,1c-2.19-1.13-3.63-2.81-3.74-4.7h4.73A7.31,7.31,0,0,0,104.49,19.28Zm-1.67-9.06A14.41,14.41,0,0,1,107.38,9a6.27,6.27,0,0,0-2.6,2A7,7,0,0,1,102.82,10.22Zm-4.5-1.43h7.41c-3.74.78-6.63,2.75-7.41,5.2Zm0,13.18V16.76c.78,2.46,3.67,4.45,7.41,5.21Zm4.5-1.43a7,7,0,0,1,2-.84,6.3,6.3,0,0,0,2.6,2A14.41,14.41,0,0,1,102.82,20.54Zm6.06,1.07a5.22,5.22,0,0,1-3.61-2,16.07,16.07,0,0,1,3.61-.44Zm0-2.94a17.14,17.14,0,0,0-3.91.48,6.55,6.55,0,0,1-1.16-3.54h5.07Zm0-3.52h-5.07A6.61,6.61,0,0,1,105,11.6a17.29,17.29,0,0,0,3.91.48Zm0-3.55a15.79,15.79,0,0,1-3.59-.42,5.16,5.16,0,0,1,3.59-2Zm.48,7.53a18.3,18.3,0,0,1,3.7.44,4.91,4.91,0,0,1-3.7,2.06Zm4.18.59a5.87,5.87,0,0,1,1.86.84,14.4,14.4,0,0,1-4.33,1.15A5.66,5.66,0,0,0,113.54,19.72ZM119.92,22h-7.41c3.74-.76,6.61-2.75,7.41-5.21Zm0-8c-.8-2.45-3.67-4.42-7.41-5.2h7.41Z"/><path class="cls-3" d="M93.76,8.47a1.31,1.31,0,1,0,1.33,1.3A1.31,1.31,0,0,0,93.76,8.47Zm0,2.33a1,1,0,1,1,1-1A1,1,0,0,1,93.76,10.8Z"/><path class="cls-3" d="M94.14,10.3c0-.08,0-.19,0-.27s0-.23-.21-.26a.26.26,0,0,0,.23-.27c0-.31-.15-.38-.42-.38h-.34v1.31h.15V9.86h.23c.19,0,.23.1.23.23a2.09,2.09,0,0,0,0,.34h.17v0S94.14,10.34,94.14,10.3Zm-.42-.59h-.21V9.25h.19c.1,0,.27,0,.27.23S93.8,9.71,93.72,9.71Z"/></g></g></svg>